<svg width="200" height="200" viewBox="0 0 200 200" fill="none" xmlns="http://www.w3.org/2000/svg">
<circle cx="74" cy="74" r="74" transform="matrix(1 0 0 -1 25 175)" fill="#1A8CD0"/>
<path fill-rule="evenodd" clip-rule="evenodd" d="M169 101C169 62.3401 137.66 31 99 31C60.3401 31 29 62.3401 29 101C29 139.66 60.3401 171 99 171C113.521 171 127.01 166.578 138.193 159.008C139.777 157.936 141.894 158.01 143.33 159.273V159.273C145.232 160.947 145.147 163.942 143.058 165.374C130.522 173.97 115.348 179 99 179C55.9218 179 21 144.078 21 101C21 57.9218 55.9218 23 99 23C142.078 23 177 57.9218 177 101C177 111.293 175.006 121.121 171.383 130.118C170.379 132.612 167.222 133.249 165.204 131.473V131.473C163.867 130.296 163.462 128.392 164.117 126.736C167.268 118.77 169 110.087 169 101Z" fill="#332D57"/>
<mask id="mask0_4_210" style="mask-type:alpha" maskUnits="userSpaceOnUse" x="29" y="31" width="140" height="140">
<circle cx="70" cy="70" r="70" transform="matrix(1 0 0 -1 29 171)" fill="#53B4EF"/>
</mask>
<g mask="url(#mask0_4_210)">
<circle cx="70" cy="70" r="70" transform="matrix(1 0 0 -1 13 171)" fill="#53B4EF"/>
</g>
<path fill-rule="evenodd" clip-rule="evenodd" d="M75.3677 151.953C75.3677 154.913 72.3536 156.9 69.7542 155.484C56.5298 148.281 46.2187 136.403 41.0402 122.071C40.1284 119.547 42.0838 117 44.7669 117V117C46.5572 117 48.124 118.172 48.749 119.849C53.2522 131.938 61.9617 141.978 73.0978 148.19C74.4706 148.956 75.3677 150.381 75.3677 151.953V151.953Z" fill="white"/>
<mask id="path-6-inside-1_4_210" fill="white">
<path d="M46.1678 86.7065C44.014 86.212 42.6533 84.0585 43.3184 81.9512C45.5482 74.8859 49.3211 68.4034 54.3628 62.9747C55.8666 61.3555 58.4112 61.4749 59.905 63.1033V63.1033C61.3989 64.7318 61.2734 67.251 59.7945 68.893C55.9187 73.196 52.9742 78.2551 51.1473 83.7506C50.4501 85.8476 48.3216 87.2011 46.1678 86.7065V86.7065Z"/>
</mask>
<path d="M46.1678 86.7065C44.014 86.212 42.6533 84.0585 43.3184 81.9512C45.5482 74.8859 49.3211 68.4034 54.3628 62.9747C55.8666 61.3555 58.4112 61.4749 59.905 63.1033V63.1033C61.3989 64.7318 61.2734 67.251 59.7945 68.893C55.9187 73.196 52.9742 78.2551 51.1473 83.7506C50.4501 85.8476 48.3216 87.2011 46.1678 86.7065V86.7065Z" stroke="#332D57" stroke-width="16" mask="url(#path-6-inside-1_4_210)"/>
<mask id="path-7-inside-2_4_210" fill="white">
<path d="M119.526 100.474C121.089 98.9114 123.636 98.9017 125.069 100.584C129.062 105.274 132.154 110.661 134.19 116.474C134.92 118.56 133.627 120.754 131.49 121.316V121.316C129.353 121.877 127.183 120.591 126.421 118.516C124.785 114.064 122.407 109.921 119.387 106.263C117.98 104.559 117.963 102.037 119.526 100.474V100.474Z"/>
</mask>
<path d="M119.526 100.474C121.089 98.9114 123.636 98.9017 125.069 100.584C129.062 105.274 132.154 110.661 134.19 116.474C134.92 118.56 133.627 120.754 131.49 121.316V121.316C129.353 121.877 127.183 120.591 126.421 118.516C124.785 114.064 122.407 109.921 119.387 106.263C117.98 104.559 117.963 102.037 119.526 100.474V100.474Z" stroke="#332D57" stroke-width="16" mask="url(#path-7-inside-2_4_210)"/>
<circle cx="4" cy="4" r="4" transform="matrix(1 0 0 -1 36.3677 112)" fill="white"/>
<circle cx="3" cy="3" r="3" transform="matrix(1 0 0 -1 42 96)" fill="#332D57"/>
<circle cx="3" cy="3" r="3" transform="matrix(1 0 0 -1 111 100)" fill="#332D57"/>
</svg>
